<svg width="204" height="212" viewBox="0 0 204 212" fill="none" xmlns="http://www.w3.org/2000/svg">
<path fill-rule="evenodd" clip-rule="evenodd" d="M8 1H22V12H68V1H82V12H89V27H82V46H89V53.7077C97.6137 47.4038 106.55 41.8102 115.791 36.9965L111.898 28.8406L124.227 22.7982L128.177 31.0955C139.407 26.2358 151.049 22.5075 163.074 20.0256L161.5 11L175 8.5L176.61 17.7841C183.783 16.8854 191.081 16.4246 198.5 16.4246L199.5 29C192.549 29 185.642 29.5289 178.819 30.5211L186.598 75.3832C191.782 74.6834 196.941 74.3651 202 74.5L203 87.5C198.217 87.6347 193.517 88.0507 188.911 88.7199L190 95L176.5 97L175.527 91.424C169.982 92.863 164.609 94.6592 159.434 96.7565L161.962 102.066L149.499 107.626L147.063 102.523C141.508 105.463 136.245 108.74 131.315 112.269L134.423 115.81L123.946 124.556L120.613 120.765C118.849 122.315 117.144 123.895 115.5 125.5C112.914 128.024 110.407 130.77 108.003 133.719L113.168 137.386L104.997 148.316L100.068 144.825C96.7007 150.207 93.6713 156.046 91.0835 162.267L97.7169 164.823L92.4985 177.433L86.5433 175.146C85.2365 179.622 84.1577 184.247 83.3379 189H89V189.32L89.1803 189.321L89 195.14V204H82V211H68V210.5H67C66.8798 208.416 66.8559 206.245 66.9266 204H23.1516C23.0512 206.33 22.9999 208.664 22.9999 211H22H8.16174H8V207.337C7.96633 206.238 7.94537 205.125 7.93749 204H1V189H1.39237L1.39117 188.763L8 188.805V168H1V153H8V131H1V116H8V96H1V81H8V61H1V46H8V27H1V12H8V1ZM22 135.652L22.0074 135.655C22.6612 134.103 23.3404 132.551 24.0455 131H22V135.652ZM31.7206 116C34.3247 111.446 37.1718 106.926 40.2758 102.468L33.7613 97.8536L35.0456 96H22V116H31.7206ZM68 71.0446C65.6952 73.1746 63.4182 75.3579 61.1692 77.5929C60.0348 78.7203 58.9216 79.8561 57.8294 81H22V61H68V71.0446ZM22 27V46H68V27H22ZM134.163 43.6713C144.154 39.2428 154.608 35.6257 165.353 33.091L173.186 77.9983C166.53 79.6783 159.943 81.8884 153.588 84.4756L134.163 43.6713ZM121.834 49.66L141.157 90.1471C134.204 93.6688 127.713 97.5623 121.941 101.586L92.7363 68.3027C101.652 61.4959 111.426 55.1655 121.834 49.66ZM82.1168 76.9797L111.14 109.991C108.444 112.355 106.048 114.707 104 117C101.485 119.816 99.0871 122.749 96.8088 125.773L60.5126 100.007C64.9986 94.0436 69.6982 88.6683 74.4999 84C76.9345 81.633 79.4759 79.289 82.1168 76.9797ZM52.7308 111.291L89.1005 137.055C85.0151 143.656 81.4561 150.513 78.4549 157.402L37.2105 141.512C41.6469 130.655 46.9195 120.476 52.7308 111.291ZM32.4635 154.371L73.5404 170.151C71.3548 176.654 69.6897 183.064 68.572 189.19L24.4802 188.91C26.0473 177.062 28.8011 165.451 32.4635 154.371Z" fill="black"/>
<path d="M22 1H22.5V0.5H22V1ZM8 1V0.5H7.5V1H8ZM22 12H21.5V12.5H22V12ZM68 12V12.5H68.5V12H68ZM68 1V0.5H67.5V1H68ZM82 1H82.5V0.5H82V1ZM82 12H81.5V12.5H82V12ZM89 12H89.5V11.5H89V12ZM89 27V27.5H89.5V27H89ZM82 27V26.5H81.5V27H82ZM82 46H81.5V46.5H82V46ZM89 46H89.5V45.5H89V46ZM89 53.7077H88.5V54.6933L89.2953 54.1112L89 53.7077ZM115.791 36.9965L116.022 37.44L116.45 37.2169L116.242 36.7812L115.791 36.9965ZM111.898 28.8406L111.678 28.3916L111.234 28.6094L111.447 29.056L111.898 28.8406ZM124.227 22.7982L124.678 22.5833L124.461 22.1267L124.007 22.3493L124.227 22.7982ZM128.177 31.0955L127.725 31.3104L127.933 31.746L128.375 31.5544L128.177 31.0955ZM163.074 20.0256L163.175 20.5153L163.65 20.4173L163.567 19.9397L163.074 20.0256ZM161.5 11L161.409 10.5084L160.922 10.5985L161.007 11.0859L161.5 11ZM175 8.5L175.493 8.41457L175.406 7.91627L174.909 8.00836L175 8.5ZM176.61 17.7841L176.117 17.8696L176.199 18.3396L176.672 18.2803L176.61 17.7841ZM198.5 16.4246L198.998 16.385L198.962 15.9246H198.5V16.4246ZM199.5 29V29.5H200.041L199.998 28.9604L199.5 29ZM178.819 30.5211L178.747 30.0263L178.238 30.1002L178.326 30.6065L178.819 30.5211ZM186.598 75.3832L186.106 75.4686L186.188 75.9431L186.665 75.8787L186.598 75.3832ZM202 74.5L202.499 74.4617L202.464 74.0122L202.013 74.0002L202 74.5ZM203 87.5L203.014 87.9998L203.539 87.985L203.499 87.4616L203 87.5ZM188.911 88.7199L188.839 88.2251L188.331 88.299L188.418 88.8054L188.911 88.7199ZM190 95L190.073 95.4946L190.58 95.4195L190.493 94.9146L190 95ZM176.5 97L176.007 97.0859L176.091 97.566L176.573 97.4946L176.5 97ZM175.527 91.424L176.02 91.3381L175.927 90.8038L175.402 90.94L175.527 91.424ZM159.434 96.7565L159.247 96.2931L158.755 96.4924L158.983 96.9714L159.434 96.7565ZM161.962 102.066L162.166 102.522L162.634 102.313L162.413 101.851L161.962 102.066ZM149.499 107.626L149.048 107.842L149.257 108.282L149.702 108.083L149.499 107.626ZM147.063 102.523L147.514 102.308L147.29 101.837L146.829 102.081L147.063 102.523ZM131.315 112.269L131.024 111.862L130.575 112.184L130.94 112.599L131.315 112.269ZM134.423 115.81L134.743 116.194L135.136 115.865L134.798 115.48L134.423 115.81ZM123.946 124.556L123.57 124.886L123.892 125.252L124.266 124.94L123.946 124.556ZM120.613 120.765L120.988 120.435L120.658 120.059L120.283 120.389L120.613 120.765ZM115.5 125.5L115.849 125.858L115.5 125.5ZM108.003 133.719L107.615 133.403L107.278 133.817L107.714 134.127L108.003 133.719ZM113.168 137.386L113.569 137.685L113.876 137.275L113.458 136.978L113.168 137.386ZM104.997 148.316L104.708 148.724L105.106 149.006L105.397 148.616L104.997 148.316ZM100.068 144.825L100.357 144.417L99.9247 144.111L99.6439 144.559L100.068 144.825ZM91.0835 162.267L90.6218 162.075L90.4247 162.549L90.9038 162.734L91.0835 162.267ZM97.7169 164.823L98.1789 165.014L98.3748 164.541L97.8966 164.356L97.7169 164.823ZM92.4985 177.433L92.3192 177.9L92.7741 178.075L92.9605 177.625L92.4985 177.433ZM86.5433 175.146L86.7226 174.679L86.2156 174.484L86.0634 175.006L86.5433 175.146ZM83.3379 189L82.8452 188.915L82.7443 189.5H83.3379V189ZM89 189H89.5V188.5H89V189ZM89 189.32H88.5V189.817L88.9968 189.82L89 189.32ZM89.1803 189.321L89.6801 189.337L89.696 188.825L89.1835 188.821L89.1803 189.321ZM89 195.14L88.5002 195.124L88.5 195.132V195.14H89ZM89 204V204.5H89.5V204H89ZM82 204V203.5H81.5V204H82ZM82 211V211.5H82.5V211H82ZM68 211H67.5V211.5H68V211ZM68 210.5H68.5V210H68V210.5ZM67 210.5L66.5008 210.529L66.528 211H67V210.5ZM66.9266 204L67.4264 204.016L67.4426 203.5H66.9266V204ZM23.1516 204V203.5H22.6727L22.6521 203.978L23.1516 204ZM22.9999 211V211.5H23.4999V211H22.9999ZM8 211H7.5V211.5H8V211ZM8 207.337H8.5V207.329L8.49977 207.321L8 207.337ZM7.93749 204L8.43747 203.996L8.43399 203.5H7.93749V204ZM1 204H0.5V204.5H1V204ZM1 189V188.5H0.5V189H1ZM1.39237 189V189.5H1.8949L1.89236 188.997L1.39237 189ZM1.39117 188.763L1.39435 188.263L0.888628 188.26L0.891181 188.765L1.39117 188.763ZM8 188.805L7.99682 189.305L8.5 189.308V188.805H8ZM8 168H8.5V167.5H8V168ZM1 168H0.5V168.5H1V168ZM1 153V152.5H0.5V153H1ZM8 153V153.5H8.5V153H8ZM8 131H8.5V130.5H8V131ZM1 131H0.5V131.5H1V131ZM1 116V115.5H0.5V116H1ZM8 116V116.5H8.5V116H8ZM8 96H8.5V95.5H8V96ZM1 96H0.5V96.5H1V96ZM1 81V80.5H0.5V81H1ZM8 81V81.5H8.5V81H8ZM8 61H8.5V60.5H8V61ZM1 61H0.5V61.5H1V61ZM1 46V45.5H0.5V46H1ZM8 46V46.5H8.5V46H8ZM8 27H8.5V26.5H8V27ZM1 27H0.5V27.5H1V27ZM1 12V11.5H0.5V12H1ZM8 12V12.5H8.5V12H8ZM22.0074 135.655L21.8276 136.121L22.2799 136.296L22.4682 135.849L22.0074 135.655ZM22 135.652H21.5V135.995L21.8202 136.119L22 135.652ZM24.0455 131L24.5007 131.207L24.822 130.5H24.0455V131ZM22 131V130.5H21.5V131H22ZM40.2758 102.468L40.6862 102.754L40.9696 102.347L40.5649 102.06L40.2758 102.468ZM31.7206 116V116.5H32.0107L32.1546 116.248L31.7206 116ZM33.7613 97.8536L33.3504 97.5689L33.0686 97.9756L33.4723 98.2616L33.7613 97.8536ZM35.0456 96L35.4566 96.2848L36.0003 95.5H35.0456V96ZM22 96V95.5H21.5V96H22ZM22 116H21.5V116.5H22V116ZM68 71.0446L68.3394 71.4118L68.5 71.2634V71.0446H68ZM61.1692 77.5929L61.5216 77.9476L61.1692 77.5929ZM57.8294 81V81.5H58.0433L58.1911 81.3453L57.8294 81ZM22 81H21.5V81.5H22V81ZM22 61V60.5H21.5V61H22ZM68 61H68.5V60.5H68V61ZM22 46H21.5V46.5H22V46ZM22 27V26.5H21.5V27H22ZM68 46V46.5H68.5V46H68ZM68 27H68.5V26.5H68V27ZM165.353 33.091L165.846 33.0051L165.755 32.4826L165.238 32.6043L165.353 33.091ZM134.163 43.6713L133.961 43.2142L133.491 43.4224L133.712 43.8862L134.163 43.6713ZM173.186 77.9983L173.308 78.4831L173.758 78.3696L173.678 77.9124L173.186 77.9983ZM153.588 84.4756L153.137 84.6905L153.34 85.1167L153.777 84.9387L153.588 84.4756ZM141.157 90.1471L141.383 90.5931L141.818 90.3725L141.608 89.9317L141.157 90.1471ZM121.834 49.66L122.286 49.4447L122.061 48.9744L121.601 49.218L121.834 49.66ZM121.941 101.586L121.566 101.916L121.861 102.252L122.227 101.996L121.941 101.586ZM92.7363 68.3027L92.4329 67.9053L92.0074 68.2302L92.3605 68.6325L92.7363 68.3027ZM111.14 109.991L111.47 110.366L111.846 110.036L111.516 109.66L111.14 109.991ZM82.1168 76.9797L82.4923 76.6496L82.163 76.2751L81.7876 76.6034L82.1168 76.9797ZM104 117L103.627 116.667L104 117ZM96.8088 125.773L96.5194 126.18L96.9156 126.462L97.2081 126.074L96.8088 125.773ZM60.5126 100.007L60.113 99.7068L59.804 100.118L60.2231 100.415L60.5126 100.007ZM74.4999 84L74.8485 84.3585L74.4999 84ZM89.1005 137.055L89.5257 137.319L89.773 136.919L89.3896 136.647L89.1005 137.055ZM52.7308 111.291L53.0198 110.883L52.5899 110.579L52.3082 111.024L52.7308 111.291ZM78.4549 157.402L78.2751 157.869L78.722 158.041L78.9133 157.602L78.4549 157.402ZM37.2105 141.512L36.7477 141.323L36.5547 141.795L37.0308 141.979L37.2105 141.512ZM73.5404 170.151L74.0143 170.31L74.167 169.856L73.7197 169.684L73.5404 170.151ZM32.4635 154.371L32.6428 153.905L32.1534 153.717L31.9888 154.214L32.4635 154.371ZM68.572 189.19L68.5688 189.69L68.9885 189.693L69.0639 189.28L68.572 189.19ZM24.4802 188.91L23.9845 188.844L23.9102 189.406L24.477 189.41L24.4802 188.91ZM22 0.5H8V1.5H22V0.5ZM22.5 12V1H21.5V12H22.5ZM68 11.5H22V12.5H68V11.5ZM67.5 1V12H68.5V1H67.5ZM82 0.5H68V1.5H82V0.5ZM82.5 12V1H81.5V12H82.5ZM89 11.5H82V12.5H89V11.5ZM89.5 27V12H88.5V27H89.5ZM82 27.5H89V26.5H82V27.5ZM82.5 46V27H81.5V46H82.5ZM89 45.5H82V46.5H89V45.5ZM89.5 53.7077V46H88.5V53.7077H89.5ZM115.56 36.5531C106.296 41.3791 97.3377 46.9862 88.7047 53.3043L89.2953 54.1112C97.8898 47.8214 106.805 42.2414 116.022 37.44L115.56 36.5531ZM111.447 29.056L115.339 37.2119L116.242 36.7812L112.35 28.6252L111.447 29.056ZM124.007 22.3493L111.678 28.3916L112.118 29.2896L124.447 23.2472L124.007 22.3493ZM128.628 30.8806L124.678 22.5833L123.775 23.0131L127.725 31.3104L128.628 30.8806ZM162.973 19.5359C150.914 22.025 139.238 25.7638 127.978 30.6366L128.375 31.5544C139.575 26.7077 151.185 22.9901 163.175 20.5153L162.973 19.5359ZM161.007 11.0859L162.582 20.1115L163.567 19.9397L161.993 10.9141L161.007 11.0859ZM174.909 8.00836L161.409 10.5084L161.591 11.4916L175.091 8.99164L174.909 8.00836ZM177.103 17.6987L175.493 8.41457L174.507 8.58543L176.117 17.8696L177.103 17.6987ZM198.5 15.9246C191.061 15.9246 183.741 16.3867 176.548 17.288L176.672 18.2803C183.824 17.3841 191.102 16.9246 198.5 16.9246V15.9246ZM199.998 28.9604L198.998 16.385L198.002 16.4643L199.002 29.0396L199.998 28.9604ZM178.891 31.0159C185.691 30.0269 192.575 29.5 199.5 29.5V28.5C192.524 28.5 185.592 29.0308 178.747 30.0263L178.891 31.0159ZM187.091 75.2978L179.311 30.4357L178.326 30.6065L186.106 75.4686L187.091 75.2978ZM202.013 74.0002C196.924 73.8645 191.738 74.1847 186.531 74.8877L186.665 75.8787C191.825 75.1821 196.957 74.8657 201.987 74.9998L202.013 74.0002ZM203.499 87.4616L202.499 74.4617L201.501 74.5383L202.501 87.5383L203.499 87.4616ZM188.983 89.2147C193.57 88.5482 198.251 88.1339 203.014 87.9998L202.986 87.0002C198.184 87.1355 193.464 87.5532 188.839 88.2251L188.983 89.2147ZM190.493 94.9146L189.404 88.6345L188.418 88.8054L189.507 95.0854L190.493 94.9146ZM176.573 97.4946L190.073 95.4946L189.927 94.5054L176.427 96.5054L176.573 97.4946ZM175.035 91.5099L176.007 97.0859L176.993 96.9141L176.02 91.3381L175.035 91.5099ZM159.622 97.2199C164.777 95.1305 170.13 93.3412 175.653 91.908L175.402 90.94C169.835 92.3847 164.441 94.1879 159.247 96.2931L159.622 97.2199ZM162.413 101.851L159.886 96.5416L158.983 96.9714L161.51 102.28L162.413 101.851ZM149.702 108.083L162.166 102.522L161.758 101.609L149.295 107.17L149.702 108.083ZM146.612 102.738L149.048 107.842L149.95 107.411L147.514 102.308L146.612 102.738ZM131.606 112.675C136.518 109.159 141.762 105.894 147.297 102.965L146.829 102.081C141.254 105.032 135.972 108.321 131.024 111.862L131.606 112.675ZM134.798 115.48L131.691 111.939L130.94 112.599L134.047 116.14L134.798 115.48ZM124.266 124.94L134.743 116.194L134.102 115.426L123.626 124.172L124.266 124.94ZM120.237 121.095L123.57 124.886L124.321 124.226L120.988 120.435L120.237 121.095ZM115.849 125.858C117.487 124.259 119.186 122.685 120.943 121.14L120.283 120.389C118.512 121.945 116.801 123.531 115.151 125.142L115.849 125.858ZM108.391 134.035C110.783 131.1 113.278 128.368 115.849 125.858L115.151 125.142C112.551 127.68 110.031 130.44 107.615 133.403L108.391 134.035ZM113.458 136.978L108.292 133.311L107.714 134.127L112.879 137.793L113.458 136.978ZM105.397 148.616L113.569 137.685L112.768 137.086L104.596 148.017L105.397 148.616ZM99.7788 145.233L104.708 148.724L105.286 147.908L100.357 144.417L99.7788 145.233ZM91.5452 162.459C94.1225 156.263 97.1393 150.449 100.492 145.09L99.6439 144.559C96.2622 149.965 93.2202 155.828 90.6218 162.075L91.5452 162.459ZM97.8966 164.356L91.2633 161.801L90.9038 162.734L97.5371 165.29L97.8966 164.356ZM92.9605 177.625L98.1789 165.014L97.2549 164.632L92.0365 177.242L92.9605 177.625ZM86.364 175.612L92.3192 177.9L92.6778 176.967L86.7226 174.679L86.364 175.612ZM83.8306 189.085C84.6472 184.351 85.7217 179.744 87.0233 175.286L86.0634 175.006C84.7514 179.499 83.6683 184.143 82.8452 188.915L83.8306 189.085ZM89 188.5H83.3379V189.5H89V188.5ZM89.5 189.32V189H88.5V189.32H89.5ZM89.1835 188.821L89.0032 188.82L88.9968 189.82L89.1772 189.821L89.1835 188.821ZM89.4998 195.155L89.6801 189.337L88.6806 189.306L88.5002 195.124L89.4998 195.155ZM89.5 204V195.14H88.5V204H89.5ZM82 204.5H89V203.5H82V204.5ZM82.5 211V204H81.5V211H82.5ZM68 211.5H82V210.5H68V211.5ZM67.5 210.5V211H68.5V210.5H67.5ZM67 211H68V210H67V211ZM66.4269 203.984C66.3557 206.243 66.3797 208.429 66.5008 210.529L67.4992 210.471C67.3799 208.403 67.3561 206.247 67.4264 204.016L66.4269 203.984ZM23.1516 204.5H66.9266V203.5H23.1516V204.5ZM23.4999 211C23.4999 208.671 23.551 206.344 23.6511 204.022L22.6521 203.978C22.5513 206.315 22.4999 208.657 22.4999 211H23.4999ZM22 211.5H22.9999V210.5H22V211.5ZM8.16174 211.5H22V210.5H8.16174V211.5ZM8 211.5H8.16174V210.5H8V211.5ZM7.5 207.337V211H8.5V207.337H7.5ZM7.4375 204.004C7.44541 205.133 7.46644 206.249 7.50023 207.352L8.49977 207.321C8.46621 206.226 8.44533 205.118 8.43747 203.996L7.4375 204.004ZM1 204.5H7.93749V203.5H1V204.5ZM0.5 189V204H1.5V189H0.5ZM1.39237 188.5H1V189.5H1.39237V188.5ZM0.891181 188.765L0.892378 189.003L1.89236 188.997L1.89117 188.76L0.891181 188.765ZM8.00318 188.305L1.39435 188.263L1.38799 189.263L7.99682 189.305L8.00318 188.305ZM7.5 168V188.805H8.5V168H7.5ZM1 168.5H8V167.5H1V168.5ZM0.5 153V168H1.5V153H0.5ZM8 152.5H1V153.5H8V152.5ZM7.5 131V153H8.5V131H7.5ZM1 131.5H8V130.5H1V131.5ZM0.5 116V131H1.5V116H0.5ZM8 115.5H1V116.5H8V115.5ZM7.5 96V116H8.5V96H7.5ZM1 96.5H8V95.5H1V96.5ZM0.5 81V96H1.5V81H0.5ZM8 80.5H1V81.5H8V80.5ZM7.5 61V81H8.5V61H7.5ZM1 61.5H8V60.5H1V61.5ZM0.5 46V61H1.5V46H0.5ZM8 45.5H1V46.5H8V45.5ZM7.5 27V46H8.5V27H7.5ZM1 27.5H8V26.5H1V27.5ZM0.5 12V27H1.5V12H0.5ZM8 11.5H1V12.5H8V11.5ZM7.5 1V12H8.5V1H7.5ZM22.1872 135.188L22.1798 135.185L21.8202 136.119L21.8276 136.121L22.1872 135.188ZM23.5903 130.793C22.8833 132.349 22.2022 133.905 21.5466 135.461L22.4682 135.849C23.1202 134.302 23.7975 132.754 24.5007 131.207L23.5903 130.793ZM22 131.5H24.0455V130.5H22V131.5ZM22.5 135.652V131H21.5V135.652H22.5ZM39.8655 102.183C36.7529 106.653 33.8978 111.185 31.2865 115.752L32.1546 116.248C34.7515 111.706 37.5908 107.199 40.6862 102.754L39.8655 102.183ZM33.4723 98.2616L39.9868 102.876L40.5649 102.06L34.0504 97.4456L33.4723 98.2616ZM34.6346 95.7152L33.3504 97.5689L34.1723 98.1384L35.4566 96.2848L34.6346 95.7152ZM22 96.5H35.0456V95.5H22V96.5ZM22.5 116V96H21.5V116H22.5ZM31.7206 115.5H22V116.5H31.7206V115.5ZM67.6606 70.6774C65.3514 72.8116 63.0699 74.9991 60.8167 77.2383L61.5216 77.9476C63.7664 75.7167 66.0391 73.5376 68.3394 71.4118L67.6606 70.6774ZM60.8167 77.2383C59.6792 78.3687 58.563 79.5077 57.4678 80.6547L58.1911 81.3453C59.2802 80.2046 60.3904 79.0718 61.5216 77.9476L60.8167 77.2383ZM57.8294 80.5H22V81.5H57.8294V80.5ZM22.5 81V61H21.5V81H22.5ZM22 61.5H68V60.5H22V61.5ZM67.5 61V71.0446H68.5V61H67.5ZM22.5 46V27H21.5V46H22.5ZM68 45.5H22V46.5H68V45.5ZM67.5 27V46H68.5V27H67.5ZM22 27.5H68V26.5H22V27.5ZM165.238 32.6043C154.461 35.1467 143.977 38.7743 133.961 43.2142L134.366 44.1284C144.331 39.7113 154.756 36.1046 165.468 33.5776L165.238 32.6043ZM173.678 77.9124L165.846 33.0051L164.861 33.1769L172.693 78.0843L173.678 77.9124ZM153.777 84.9387C160.112 82.3594 166.677 80.1568 173.308 78.4831L173.063 77.5135C166.383 79.1997 159.774 81.4174 153.4 84.0125L153.777 84.9387ZM133.712 43.8862L153.137 84.6905L154.04 84.2607L134.615 43.4564L133.712 43.8862ZM141.608 89.9317L122.286 49.4447L121.383 49.8754L140.706 90.3625L141.608 89.9317ZM122.227 101.996C127.98 97.9862 134.45 94.1046 141.383 90.5931L140.931 89.7011C133.958 93.2329 127.447 97.1384 121.656 101.176L122.227 101.996ZM92.3605 68.6325L121.566 101.916L122.317 101.256L93.1121 67.973L92.3605 68.6325ZM121.601 49.218C111.167 54.7369 101.37 61.0825 92.4329 67.9053L93.0397 68.7002C101.934 61.9094 111.685 55.594 122.068 50.102L121.601 49.218ZM111.516 109.66L82.4923 76.6496L81.7413 77.3099L110.765 110.321L111.516 109.66ZM104.373 117.333C106.405 115.057 108.787 112.719 111.47 110.366L110.81 109.615C108.102 111.99 105.69 114.356 103.627 116.667L104.373 117.333ZM97.2081 126.074C99.4785 123.061 101.868 120.139 104.373 117.333L103.627 116.667C101.103 119.494 98.6958 122.438 96.4095 125.472L97.2081 126.074ZM60.2231 100.415L96.5194 126.18L97.0982 125.365L60.802 99.5997L60.2231 100.415ZM74.1514 83.6415C69.3294 88.3295 64.6129 93.7247 60.113 99.7068L60.9121 100.308C65.3843 94.3626 70.0671 89.007 74.8485 84.3585L74.1514 83.6415ZM81.7876 76.6034C79.1403 78.9184 76.5923 81.2683 74.1514 83.6415L74.8485 84.3585C77.2766 81.9977 79.8116 79.6597 82.4459 77.3561L81.7876 76.6034ZM89.3896 136.647L53.0198 110.883L52.4417 111.699L88.8115 137.463L89.3896 136.647ZM78.9133 157.602C81.9053 150.733 85.4533 143.898 89.5257 137.319L88.6754 136.792C84.5769 143.414 81.007 150.292 77.9965 157.202L78.9133 157.602ZM37.0308 141.979L78.2751 157.869L78.6347 156.936L37.3903 141.045L37.0308 141.979ZM52.3082 111.024C46.481 120.233 41.195 130.439 36.7477 141.323L37.6734 141.701C42.0988 130.871 47.358 120.718 53.1533 111.559L52.3082 111.024ZM73.7197 169.684L32.6428 153.905L32.2842 154.838L73.3611 170.617L73.7197 169.684ZM69.0639 189.28C70.177 183.179 71.8358 176.793 74.0143 170.31L73.0664 169.991C70.8737 176.516 69.2025 182.949 68.0801 189.1L69.0639 189.28ZM24.477 189.41L68.5688 189.69L68.5751 188.69L24.4834 188.41L24.477 189.41ZM31.9888 154.214C28.3172 165.322 25.556 176.964 23.9845 188.844L24.9759 188.975C26.5386 177.161 29.2849 165.58 32.9383 154.528L31.9888 154.214Z" fill="black"/>
</svg>
